<?xml version="1.0" encoding="UTF-8"?>
<svg id="Layer_1" data-name="Layer 1" xmlns="http://www.w3.org/2000/svg" viewBox="0 0 560 243.27">
  <defs>
    <style>
      .cls-1 {
        fill: #231f20;
      }

      .cls-2 {
        fill: #fff;
      }

      .cls-2, .cls-3 {
        stroke: #231f20;
        stroke-miterlimit: 10;
      }

      .cls-3 {
        fill: none;
        stroke-width: 2px;
      }
    </style>
  </defs>
  <rect class="cls-2" x="5.99" y="5.82" width="548.03" height="231.63"/>
  <g>
    <path class="cls-1" d="M240.93,79.57c0,14.34-11.26,18.48-27.54,18.48h-19.8v-2.64h5.37V39.09h-10.3c-4.31,0-7.83,1.76-7.83,6.42,0,3.26,1.67,5.81,4.4,5.81,1.14,0,1.58-.53,1.58-1.23,0-.79-.44-.88-.44-1.76,0-1.32,1.14-2.55,2.73-2.55,1.85,0,2.99,1.14,2.99,3.17s-1.5,5.02-6.34,5.02-7.74-3.43-7.74-8.36c0-6.25,4.84-9.15,10.65-9.15h17.07c13.73,0,24.73,2.2,24.73,12.41,0,6.78-4.75,11.35-13.38,12.14v.18c13.82,0,23.85,5.28,23.85,18.39Zm-38.63-19.45h3.52c14.52,0,21.12-3.17,21.12-11.09,0-6.78-6.25-9.94-21.21-9.94h-3.43v21.03Zm35.11,19.45c0-13.99-11.44-16.81-27.81-16.81h-7.3v32.65h9.94c17.78,0,25.17-5.63,25.17-15.84Z"/>
    <path class="cls-1" d="M293.9,54.14c0,10.65-5.63,17.78-20.06,18.83v.09c10.47,1.14,13.02,9.06,15.49,17.42,1.41,4.93,2.73,5.9,5.46,5.9,1.5,0,2.73-.44,3.43-1.41l1.32,1.41c-1.23,1.67-2.82,2.38-5.1,2.38-5.9,0-7.48-3.87-8.98-8.98-3.17-10.74-6.42-15.49-15.84-15.49h-12.14v21.12h5.28v2.64h-13.9v-2.64h5.28V39.09h-5.28v-2.64h21.03c17.07,0,24.02,7.74,24.02,17.69Zm-36.43-15.05v32.56h10.47c16.28,0,22.44-6.86,22.44-17.34,0-9.06-6.16-15.22-22.44-15.22h-10.47Z"/>
    <path class="cls-1" d="M313,39.09v56.32h5.28v2.64h-13.9v-2.64h5.28V39.09h-5.28v-2.64h13.9v2.64h-5.28Z"/>
    <path class="cls-1" d="M379.79,90.13l-5.54,7.92h-47.17v-2.64h5.28V39.09h-5.28v-2.64h42.06l5.37,7.83-2.11,1.41-4.49-6.6h-32.21v21.03h16.37l-3.52-5.02,1.94-1.41,9.86,14.08-1.94,1.41-4.49-6.42h-18.22v32.65h37.4l4.66-6.69,2.02,1.41Z"/>
    <path class="cls-1" d="M253.8,125.68l-2.81,6.37h-1.72l8.24-18.56h1.79l8.55,18.56h-1.79l-2.91-6.37h-9.36Zm8.71-1.51c-2.55-5.59-3.74-8.14-4.16-9.31h-.03c-.36,1.12-1.77,4.47-3.9,9.31h8.09Z"/>
    <path class="cls-1" d="M271.22,132.05v-18.56h1.98c3.61,4.68,11.65,14.82,12.64,16.56h.05c-.16-2.65-.13-5.3-.13-8.29v-8.27h1.56v18.56h-1.9c-3.28-4.21-11.26-14.64-12.71-16.8h-.05c.13,2.42,.13,5.04,.13,8.32v8.48h-1.56Z"/>
    <path class="cls-1" d="M293.04,113.49h7.23c5.85,0,9.39,3.82,9.39,9,0,5.95-4.08,9.57-9.41,9.57h-7.2v-18.56Zm1.61,17.08h5.1c5.59,0,8.16-3.61,8.16-8.04,0-4.76-3.3-7.57-7.9-7.57h-5.36v15.6Z"/>
    <path class="cls-1" d="M97.75,189.57c0,14.34-11.26,18.48-27.54,18.48h-19.8v-2.64h5.37v-56.32h-10.3c-4.31,0-7.83,1.76-7.83,6.42,0,3.26,1.67,5.81,4.4,5.81,1.14,0,1.58-.53,1.58-1.23,0-.79-.44-.88-.44-1.76,0-1.32,1.14-2.55,2.73-2.55,1.85,0,2.99,1.14,2.99,3.17s-1.5,5.02-6.34,5.02-7.74-3.43-7.74-8.36c0-6.25,4.84-9.15,10.65-9.15h17.07c13.73,0,24.73,2.2,24.73,12.41,0,6.78-4.75,11.35-13.38,12.14v.18c13.82,0,23.85,5.28,23.85,18.39Zm-38.63-19.45h3.52c14.52,0,21.12-3.17,21.12-11.09,0-6.78-6.25-9.94-21.21-9.94h-3.43v21.03Zm35.11,19.45c0-13.99-11.44-16.81-27.81-16.81h-7.3v32.65h9.94c17.78,0,25.17-5.63,25.17-15.84Z"/>
    <path class="cls-1" d="M171.14,177.25c0,19.1-13.55,32.21-32.74,32.21s-32.73-13.11-32.73-32.21,13.55-32.21,32.73-32.21,32.74,13.11,32.74,32.21Zm-61.95,0c0,17.78,12.58,29.39,29.21,29.39s29.22-11.62,29.22-29.39-12.58-29.39-29.22-29.39-29.21,11.62-29.21,29.39Z"/>
    <path class="cls-1" d="M225,164.14c0,10.65-5.63,17.78-20.06,18.83v.09c10.47,1.14,13.02,9.06,15.49,17.42,1.41,4.93,2.73,5.9,5.46,5.9,1.5,0,2.73-.44,3.43-1.41l1.32,1.41c-1.23,1.67-2.82,2.38-5.1,2.38-5.9,0-7.48-3.87-8.98-8.98-3.17-10.74-6.42-15.49-15.84-15.49h-12.14v21.12h5.28v2.64h-13.9v-2.64h5.28v-56.32h-5.28v-2.64h21.03c17.07,0,24.02,7.74,24.02,17.69Zm-36.43-15.05v32.56h10.47c16.28,0,22.44-6.86,22.44-17.33,0-9.06-6.16-15.22-22.44-15.22h-10.47Z"/>
    <path class="cls-1" d="M286.95,177.43c0,19.01-10.56,30.62-34.23,30.62h-17.25v-2.64h5.28v-56.32h-5.28v-2.64h16.98c23.67,0,34.49,11.79,34.49,30.97Zm-42.85-28.33v56.32h7.74c22.35,0,31.59-10.03,31.59-27.98s-9.5-28.33-31.85-28.33h-7.48Z"/>
    <path class="cls-1" d="M348.46,200.13l-5.54,7.92h-47.17v-2.64h5.28v-56.32h-5.28v-2.64h42.06l5.37,7.83-2.11,1.41-4.49-6.6h-32.21v21.03h16.37l-3.52-5.02,1.94-1.41,9.86,14.08-1.94,1.41-4.49-6.42h-18.22v32.65h37.4l4.66-6.69,2.02,1.41Z"/>
    <path class="cls-1" d="M413.49,205.41v2.64h-13.73v-2.64h5.28l-8.98-21.12h-30.18l-8.62,21.12h5.28v2.64h-12.76v-2.64h4.84l24.73-60.19h3.61l25.7,60.19h4.84Zm-18.57-23.76l-14.17-33.44-13.73,33.44h27.9Z"/>
    <path class="cls-1" d="M466.29,149.09h-5.28v34.05c0,18.04-6.51,26.14-22.97,26.14-14.96,0-22.79-7.3-22.79-24.9v-35.29h-5.28v-2.64h13.9v2.64h-5.28v34.93c0,15.31,6.25,22.62,20.33,22.62s19.45-8.18,19.45-24.38v-33.17h-5.28v-2.64h13.2v2.64Z"/>
    <path class="cls-1" d="M525.16,205.41v2.64h-14.17v-2.64h5.28l-18.83-26.93-19.27,26.93h5.28l-.09,2.64h-13.11v-2.64h4.84l20.77-29.13-19.01-27.19h-4.84v-2.64h14.17v2.64h-5.28l17.25,24.64,17.51-24.64h-5.28l.09-2.64h13.11v2.64h-4.84l-19.09,26.84,20.68,29.48h4.84Z"/>
  </g>
  <rect class="cls-3" x="11.97" y="11.44" width="536.06" height="220.39"/>
</svg>